<svg width="309" height="72" viewBox="0 0 309 72" fill="none" xmlns="http://www.w3.org/2000/svg">
<path d="M22.4414 55.8874V63.0626L29.3832 67.4189M22.4414 55.8874L29.1261 51.2748L35.8108 55.8874M22.4414 55.8874L29.3832 60.5M35.8108 55.8874V63.0626L29.3832 67.4189M35.8108 55.8874L29.3832 60.5M29.3832 67.4189V60.5" stroke="#21D4DD"/>
<path d="M1 44.2838V51.459L7.94179 55.8153M1 44.2838L7.68468 39.6712L14.3694 44.2838M1 44.2838L7.94179 48.8964M14.3694 44.2838V51.459L7.94179 55.8153M14.3694 44.2838L7.94179 48.8964M7.94179 55.8153V48.8964" stroke="#21D4DD"/>
<path d="M1 18.8063V25.9815L7.94179 30.3378M1 18.8063L7.68468 14.1937L14.3694 18.8063M1 18.8063L7.94179 23.4189M14.3694 18.8063V25.9815L7.94179 30.3378M14.3694 18.8063L7.94179 23.4189M7.94179 30.3378V23.4189" stroke="#21D4DD"/>
<path d="M43.6306 44.2838V51.459L50.5724 55.8153M43.6306 44.2838L50.3153 39.6712L57 44.2838M43.6306 44.2838L50.5724 48.8964M57 44.2838V51.459L50.5724 55.8153M57 44.2838L50.5724 48.8964M50.5724 55.8153V48.8964" stroke="#21D4DD"/>
<path d="M43.6306 18.8063V25.9815L50.5724 30.3378M43.6306 18.8063L50.3153 14.1937L57 18.8063M43.6306 18.8063L50.5724 23.4189M57 18.8063V25.9815L50.5724 30.3378M57 18.8063L50.5724 23.4189M50.5724 30.3378V23.4189" stroke="#21D4DD"/>
<path d="M22.4414 6.1937V13.3689L29.2522 17.7252M22.4414 6.1937L29 1.58109L35.5586 6.1937M22.4414 6.1937L29.2522 10.8063M35.5586 6.1937V13.3689L29.2522 17.7252M35.5586 6.1937L29.2522 10.8063M29.2522 17.7252V10.8063" stroke="#21D4DD"/>
<path d="M22.4414 31.5991V38.6622L29.2522 42.9505M22.4414 31.5991L29 27.0586L35.5586 31.5991M22.4414 31.5991L29.2522 36.1396M35.5586 31.5991V38.6622L29.2522 42.9505M35.5586 31.5991L29.2522 36.1396M29.2522 42.9505V36.1396" stroke="#21D4DD"/>
<circle cx="13.8649" cy="13.4369" r="0.504505" fill="#C81DD3"/>
<circle cx="16.1351" cy="11.9234" r="0.504505" fill="#C81DD3"/>
<circle cx="18.6577" cy="10.4099" r="0.504505" fill="#C81DD3"/>
<circle r="0.504505" transform="matrix(-1 0 0 1 46.4054 13.4369)" fill="#C81DD3"/>
<circle r="0.504505" transform="matrix(-1 0 0 1 43.8829 11.9234)" fill="#C81DD3"/>
<circle r="0.504505" transform="matrix(-1 0 0 1 41.6126 10.4099)" fill="#C81DD3"/>
<path d="M14.3694 18.9865L22.4414 13.1847" stroke="white"/>
<path d="M35.5586 31.5991L43.6306 26.0496" stroke="white"/>
<path d="M14.3694 44.2117L22.4414 38.6622" stroke="white"/>
<path d="M43.6306 18.9865L35.5586 13.1847" stroke="white"/>
<path d="M22.4414 31.5991L14.3694 26.0496" stroke="white"/>
<path d="M43.6306 44.2117L35.5586 38.6622" stroke="white"/>
<path d="M29.2523 42.9505V51.2748" stroke="white"/>
<path d="M66.4023 62L71.5586 41.6484H62.8477L64.3125 35.6523H87.6328L86.1484 41.6484H77.7109L72.6328 62H66.4023ZM85.9141 55.2422L89.5859 40.0078C90.6406 37.1042 92.5221 35.6523 95.2305 35.6523H113.336L111.891 41.6875H101.344H96.2656C96.1224 41.6875 95.9727 41.7461 95.8164 41.8633C95.6471 41.9805 95.5299 42.1367 95.4648 42.332L94.625 45.8086H105.27L103.883 51.8438H93.1797L92.3984 55.0469C92.3594 55.2943 92.418 55.5091 92.5742 55.6914C92.7174 55.8737 92.9128 55.9648 93.1602 55.9648L108.414 55.9844C107.984 57.8203 107.503 59.8255 106.969 62H91.4805C89.6315 62 88.1471 61.3164 87.0273 59.9492C85.8945 58.5951 85.5234 57.026 85.9141 55.2422ZM111.246 55.2422L114.918 40.0078C115.96 37.1042 117.835 35.6523 120.543 35.6523H138.668L137.203 41.6875H121.578C121.435 41.6875 121.285 41.7461 121.129 41.8633C120.973 41.9805 120.862 42.1367 120.797 42.332L117.75 55.0469C117.711 55.2943 117.77 55.5091 117.926 55.6914C118.082 55.8737 118.284 55.9648 118.531 55.9648L133.805 55.9844C133.362 57.8203 132.874 59.8255 132.34 62H116.832C114.814 61.9219 113.303 61.1862 112.301 59.793C111.298 58.3867 110.947 56.8698 111.246 55.2422ZM134.547 62L139.918 40.0078C141.025 37.1042 142.867 35.6523 145.445 35.6523H147.125L145.27 43.6992L144.781 45.75H154.762C155.087 45.75 155.38 45.6523 155.641 45.457C155.914 45.2487 156.09 44.9818 156.168 44.6562L156.402 43.6602H156.422L158.277 35.6523H164.664L159.215 57.6445C158.186 60.5482 156.337 62 153.668 62H151.988L153.844 54.2461L154.43 51.9023H144.469C143.714 51.9023 143.212 52.2669 142.965 52.9961L142.789 53.7383L140.797 62H134.547ZM167.438 35.6523H174.488L175.23 53.8164L181.441 41.6484L181.07 35.6523H187.32L188.531 53.3086L196.52 35.6523H204.352L191.656 62H182.633L182.145 53.582L178.023 62H174.215C172.757 62 171.5 61.5052 170.445 60.5156C169.391 59.526 168.805 58.276 168.688 56.7656L167.438 35.6523ZM200.016 62L205.387 40.0078C206.415 37.1042 208.225 35.6523 210.816 35.6523H229.977L223.59 62H217.359L219.137 54.7344L222.301 41.6875H211.715C211.572 41.6875 211.428 41.7461 211.285 41.8633C211.129 41.9805 211.025 42.1367 210.973 42.332L209.43 48.6992H218.785L217.301 54.7539H207.965L206.207 62H200.016ZM235.387 62L240.543 41.6484H231.832L233.297 35.6523H256.617L255.133 41.6484H246.695L241.617 62H235.387ZM254.84 55.2422L258.512 40.0078C259.553 37.1042 261.428 35.6523 264.137 35.6523H282.262L280.797 41.6875H265.172C265.029 41.6875 264.879 41.7461 264.723 41.8633C264.566 41.9805 264.456 42.1367 264.391 42.332L261.344 55.0469C261.305 55.2943 261.363 55.5091 261.52 55.6914C261.676 55.8737 261.878 55.9648 262.125 55.9648L277.398 55.9844C276.956 57.8203 276.467 59.8255 275.934 62H260.426C258.408 61.9219 256.897 61.1862 255.895 59.793C254.892 58.3867 254.54 56.8698 254.84 55.2422ZM278.141 62L283.512 40.0078C284.618 37.1042 286.461 35.6523 289.039 35.6523H290.719L288.863 43.6992L288.375 45.75H298.355C298.681 45.75 298.974 45.6523 299.234 45.457C299.508 45.2487 299.684 44.9818 299.762 44.6562L299.996 43.6602H300.016L301.871 35.6523H308.258L302.809 57.6445C301.78 60.5482 299.931 62 297.262 62H295.582L297.438 54.2461L298.023 51.9023H288.062C287.307 51.9023 286.806 52.2669 286.559 52.9961L286.383 53.7383L284.391 62H278.141Z" fill="#382C74"/>
</svg>
