<svg width="401" height="105" viewBox="0 0 401 105" fill="none" xmlns="http://www.w3.org/2000/svg">
<path d="M34.6937 86.1087V97.384L45.6022 104.23M34.6937 86.1087L45.1982 78.8604L55.7027 86.1087M34.6937 86.1087L45.6022 93.3571M55.7027 86.1087V97.384L45.6022 104.23M55.7027 86.1087L45.6022 93.3571M45.6022 104.23V93.3571" stroke="#FDA700"/>
<path d="M1 67.8745V79.1498L11.9085 85.9955M1 67.8745L11.5045 60.6261L22.009 67.8745M1 67.8745L11.9085 75.1229M22.009 67.8745V79.1498L11.9085 85.9955M22.009 67.8745L11.9085 75.1229M11.9085 85.9955V75.1229" stroke="#FDA700"/>
<path d="M1 27.8385V39.1138L11.9085 45.9595M1 27.8385L11.5045 20.5901L22.009 27.8385M1 27.8385L11.9085 35.0869M22.009 27.8385V39.1138L11.9085 45.9595M22.009 27.8385L11.9085 35.0869M11.9085 45.9595V35.0869" stroke="#FDA700"/>
<path d="M67.991 67.8745V79.1498L78.8995 85.9955M67.991 67.8745L78.4955 60.6261L89 67.8745M67.991 67.8745L78.8995 75.1229M89 67.8745V79.1498L78.8995 85.9955M89 67.8745L78.8995 75.1229M78.8995 85.9955V75.1229" stroke="#FDA700"/>
<path d="M67.991 27.8385V39.1138L78.8995 45.9595M67.991 27.8385L78.4955 20.5901L89 27.8385M67.991 27.8385L78.8995 35.0869M89 27.8385V39.1138L78.8995 45.9595M89 27.8385L78.8995 35.0869M78.8995 45.9595V35.0869" stroke="#FDA700"/>
<path d="M34.6937 8.01866V19.2939L45.3964 26.1396M34.6937 8.01866L45 0.770264L55.3063 8.01866M34.6937 8.01866L45.3964 15.267M55.3063 8.01866V19.2939L45.3964 26.1396M55.3063 8.01866L45.3964 15.267M45.3964 26.1396V15.267" stroke="#FDA700"/>
<path d="M34.6937 47.9414V59.0405L45.3964 65.7793M34.6937 47.9414L45 40.8063L55.3063 47.9414M34.6937 47.9414L45.3964 55.0766M55.3063 47.9414V59.0405L45.3964 65.7793M55.3063 47.9414L45.3964 55.0766M45.3964 65.7793V55.0766" stroke="#FDA700"/>
<circle cx="21.2162" cy="19.4009" r="0.792793" fill="#5091C6"/>
<circle cx="25.9682" cy="94.2271" r="0.792793" transform="rotate(-120 25.9682 94.2271)" fill="#5091C6"/>
<circle cx="24.7838" cy="17.0225" r="0.792793" fill="#5091C6"/>
<circle cx="22.1247" cy="92.3267" r="0.792793" transform="rotate(-120 22.1247 92.3267)" fill="#5091C6"/>
<circle cx="28.7477" cy="14.6441" r="0.792793" fill="#5091C6"/>
<circle cx="18.083" cy="90.083" r="0.792793" transform="rotate(-120 18.083 90.083)" fill="#5091C6"/>
<circle r="0.792793" transform="matrix(-1 0 0 1 72.3513 19.4009)" fill="#5091C6"/>
<circle r="0.792793" transform="matrix(0.5 -0.866025 -0.866025 -0.5 64.083 94.2271)" fill="#5091C6"/>
<circle r="0.792793" transform="matrix(-1 0 0 1 68.3874 17.0225)" fill="#5091C6"/>
<circle r="0.792793" transform="matrix(0.5 -0.866025 -0.866025 -0.5 68.1247 91.9834)" fill="#5091C6"/>
<circle r="0.792793" transform="matrix(-1 0 0 1 64.8198 14.6441)" fill="#5091C6"/>
<circle r="0.792793" transform="matrix(0.5 -0.866025 -0.866025 -0.5 71.9682 90.083)" fill="#5091C6"/>
<path d="M22.009 28.1216L34.6937 19.0045" stroke="#FDA700"/>
<path d="M55.3063 47.9415L67.991 39.2207" stroke="#FDA700"/>
<path d="M22.009 67.7613L34.6937 59.0405" stroke="#FDA700"/>
<path d="M67.991 28.1216L55.3063 19.0045" stroke="#FDA700"/>
<path d="M34.6937 47.9415L22.009 39.2207" stroke="#FDA700"/>
<path d="M67.991 67.7613L55.3063 59.0405" stroke="#FDA700"/>
<path d="M45.3964 65.7793V78.8603" stroke="#FDA700"/>
<path d="M98.2529 71L104.698 45.5605H93.8096L95.6406 38.0654H124.791L122.936 45.5605H112.389L106.041 71H98.2529ZM122.643 62.5527L127.232 43.5098C128.551 39.8802 130.903 38.0654 134.288 38.0654H156.92L155.113 45.6094H141.93H135.582C135.403 45.6094 135.216 45.6826 135.021 45.8291C134.809 45.9756 134.662 46.1709 134.581 46.415L133.531 50.7607H146.837L145.104 58.3047H131.725L130.748 62.3086C130.699 62.6178 130.772 62.8864 130.968 63.1143C131.147 63.3421 131.391 63.4561 131.7 63.4561L150.768 63.4805C150.23 65.7754 149.628 68.2819 148.961 71H129.601C127.289 71 125.434 70.1455 124.034 68.4365C122.618 66.7438 122.154 64.7826 122.643 62.5527ZM154.308 62.5527L158.897 43.5098C160.2 39.8802 162.543 38.0654 165.929 38.0654H188.585L186.754 45.6094H167.223C167.044 45.6094 166.856 45.6826 166.661 45.8291C166.466 45.9756 166.327 46.1709 166.246 46.415L162.438 62.3086C162.389 62.6178 162.462 62.8864 162.657 63.1143C162.853 63.3421 163.105 63.4561 163.414 63.4561L182.506 63.4805C181.952 65.7754 181.342 68.2819 180.675 71H161.29C158.767 70.9023 156.879 69.9827 155.626 68.2412C154.373 66.4834 153.933 64.5872 154.308 62.5527ZM183.434 71L190.147 43.5098C191.531 39.8802 193.834 38.0654 197.057 38.0654H199.156L196.837 48.124L196.227 50.6875H208.702C209.109 50.6875 209.475 50.5654 209.801 50.3213C210.143 50.0609 210.362 49.7272 210.46 49.3203L210.753 48.0752H210.777L213.097 38.0654H221.08L214.269 65.5557C212.983 69.1852 210.672 71 207.335 71H205.235L207.555 61.3076L208.287 58.3779H195.836C194.892 58.3779 194.265 58.8337 193.956 59.7451L193.736 60.6729L191.246 71H183.434ZM224.547 38.0654H233.36L234.288 60.7705L242.052 45.5605L241.588 38.0654H249.4L250.914 60.1357L260.899 38.0654H270.689L254.82 71H243.541L242.931 60.4775L237.779 71H233.019C231.196 71 229.625 70.3815 228.307 69.1445C226.988 67.9076 226.256 66.3451 226.109 64.457L224.547 38.0654ZM265.27 71L271.983 43.5098C273.269 39.8802 275.532 38.0654 278.771 38.0654H302.721L294.737 71H286.949L289.171 61.918L293.126 45.6094H279.894C279.715 45.6094 279.535 45.6826 279.356 45.8291C279.161 45.9756 279.031 46.1709 278.966 46.415L277.037 54.374H288.731L286.876 61.9424H275.206L273.009 71H265.27ZM309.483 71L315.929 45.5605H305.04L306.871 38.0654H336.021L334.166 45.5605H323.619L317.271 71H309.483ZM333.8 62.5527L338.39 43.5098C339.692 39.8802 342.035 38.0654 345.421 38.0654H368.077L366.246 45.6094H346.715C346.536 45.6094 346.349 45.6826 346.153 45.8291C345.958 45.9756 345.82 46.1709 345.738 46.415L341.93 62.3086C341.881 62.6178 341.954 62.8864 342.149 63.1143C342.345 63.3421 342.597 63.4561 342.906 63.4561L361.998 63.4805C361.445 65.7754 360.834 68.2819 360.167 71H340.782C338.259 70.9023 336.371 69.9827 335.118 68.2412C333.865 66.4834 333.425 64.5872 333.8 62.5527ZM362.926 71L369.64 43.5098C371.023 39.8802 373.326 38.0654 376.549 38.0654H378.648L376.329 48.124L375.719 50.6875H388.194C388.601 50.6875 388.967 50.5654 389.293 50.3213C389.635 50.0609 389.854 49.7272 389.952 49.3203L390.245 48.0752H390.27L392.589 38.0654H400.572L393.761 65.5557C392.475 69.1852 390.164 71 386.827 71H384.728L387.047 61.3076L387.779 58.3779H375.328C374.384 58.3779 373.757 58.8337 373.448 59.7451L373.229 60.6729L370.738 71H362.926Z" fill="#09264A"/>
</svg>
